<?xml version="1.0" encoding="utf-8"?>
<!-- Generator: Adobe Illustrator 20.1.0, SVG Export Plug-In . SVG Version: 6.00 Build 0)  -->
<svg version="1.1" id="boy_1_" xmlns="http://www.w3.org/2000/svg" xmlns:xlink="http://www.w3.org/1999/xlink" x="0px" y="0px"
	 viewBox="0 0 18.7 40.3" style="enable-background:new 0 0 18.7 40.3;" xml:space="preserve">
<style type="text/css">
	.st0{fill-rule:evenodd;clip-rule:evenodd;fill:#b8b8b8;}
</style>
<g id="Ellipse_2">
	<g>
		<circle class="st0" cx="9.1" cy="4.3" r="3.1"/>
	</g>
</g>
<g id="Ellipse_3">
	<g>
		<path class="st0" d="M14.4,8.9C13.6,8.2,11,8.1,9.1,8.2c-1.6,0-4.1,0.1-4.8,0.7c-1.6,1.4-1.5,4.2-1.4,7.7c0,1.5,0,3.8,0,4.1
			c0.5,3.5,2.4,1.4,2.4,1.4C5.4,22.3,5,38.7,7.4,38.6c1.3,0,1.1-1.2,1.9-1.2c0.7,0,0.7,1.2,1.9,1.2c2,0,1.7-16.9,1.9-16.6
			c0.9,1.4,2.2,0.1,2.2-0.5c0.1-3.4,0-2.7,0-5.3C15.3,13.4,15.8,10.2,14.4,8.9z"/>
	</g>
</g>
<g id="Ellipse_3_copy">
	<g>
		<path class="st0" d="M15.3,16.6c0-3.5,0.2-6.3-1.4-7.7c-0.7-0.6-3.2-0.7-4.8-0.7c-1.8,0-4.5,0-5.3,0.7c-1.3,1.3-0.9,4.6-1,7.4
			c0,2.6-0.1,1.9,0,5.3c0,0.6,1.2,1.9,2.1,0.5C5.3,21.8,5,38.6,7,38.6c1.2,0,1.2-1.2,1.9-1.2c0.8,0,0.7,1.2,1.9,1.2
			c2.4,0.1,2.1-16.3,2.1-16.6c0-0.1,1.9,2.1,2.4-1.4C15.4,20.4,15.3,18.1,15.3,16.6z"/>
	</g>
</g>
</svg>
