<?xml version="1.0" encoding="utf-8"?>
<!-- Generator: Adobe Illustrator 20.1.0, SVG Export Plug-In . SVG Version: 6.00 Build 0)  -->
<svg version="1.1" id="girl_1_" xmlns="http://www.w3.org/2000/svg" xmlns:xlink="http://www.w3.org/1999/xlink" x="0px" y="0px"
	 viewBox="0 0 18.7 40.3" style="enable-background:new 0 0 18.7 40.3;" xml:space="preserve">
<style type="text/css">
	.st0{fill-rule:evenodd;clip-rule:evenodd;fill:#b8b8b8;}
	
	
</style>
<g id="Ellipse_2">
	<g>
		<circle class="st0" cx="9.4" cy="4.3" r="3.1"/>
	</g>
</g>
<g id="Ellipse_3">
	<g>
		<path class="st0 active-sl" d="M13.9,18.7c-0.1-0.3,1.7-0.8,1.7-2.4c0-2.9,0.2-5.7-1.9-7.7c-0.8-0.7-2.5-0.5-4.3-0.5C7.7,8.2,5.8,8,5,8.6
			c-2,1.7-2.1,4.4-2.2,7.9c0,1.4,2.2,1.9,2.2,2.2c-0.1,0.5-1.5,5.6-2.4,8.4c-0.1,0.2,2.5,0,3.8,0c0.2,0-0.7,11.5,1.2,11.5
			c1.3,0,1-1,1.4-1c0.5,0,0.4,1,1.7,1c1.7-0.1,1-11.5,1.4-11.5c3.1,0.1,3.6,0.2,3.6,0C15.3,24.2,14.6,21.7,13.9,18.7z"/>
	</g>
</g>
</svg>
